# xmcd
#
# Track frame offsets:
#	150
#	13286
#	23127
#	35945
#	51368
#	70117
#	84069
#	95363
#	107276
#	123830
#	144281
#	155127
#	168234
#	178685
#	193666
#	212157
#
# Disc length: 3025 seconds
#
# Revision: 2
# Processed by: cddbd v1.5.2PL0 Copyright (c) Steve Scherf et al.
# Submitted via: audiograbber 1.83.01
#
DISCID=d40bcf10
DTITLE=Charley Pride - Charley Pride The Ultimate Hits Collection [CD2]
DYEAR=1900
DGENRE=Country
TTITLE0=Mountain of Love
TTITLE1=Someone Loves You Honey
TTITLE2=I Don't Think She's In Love Anymore
TTITLE3=Burgers And Fries
TTITLE4=Where Do I Put Her Memory
TTITLE5=Never Been So Loved (In All My Life)
TTITLE6=Missin' You
TTITLE7=Lovesick Blues
TTITLE8=Roll On Mississippi
TTITLE9=You're So Good When You're Bad
TTITLE10=Walk On By
TTITLE11=Distant Drums
TTITLE12=Is It Really Over
TTITLE13=Comfort Of Her Wings
TTITLE14=Jesus It's Me Again
TTITLE15=Amazing Grace
EXTD=
EXTT0=
EXTT1=
EXTT2=
EXTT3=
EXTT4=
EXTT5=
EXTT6=
EXTT7=
EXTT8=
EXTT9=
EXTT10=
EXTT11=
EXTT12=
EXTT13=
EXTT14=
EXTT15=
PLAYORDER=
